<svg width="60" height="64" viewBox="0 0 60 64" fill="none" xmlns="http://www.w3.org/2000/svg">
<path d="M6.408 22.728C6.408 22.728 6.49333 29.1707 6.664 42.056C6.664 42.952 6.408 43.7413 5.896 44.424C5.42667 45.064 4.744 45.384 3.848 45.384C2.952 45.384 2.22667 45.064 1.672 44.424C1.11733 43.7413 0.84 42.952 0.84 42.056L1.16 22.728L0.84 3.848C0.84 2.952 1.11733 2.16267 1.672 1.48C2.22667 0.797331 2.952 0.455997 3.848 0.455997C4.744 0.455997 5.42667 0.797331 5.896 1.48C6.408 2.12 6.664 3.016 6.664 4.168C6.664 5.32 6.62133 7.58133 6.536 10.952C6.49333 14.28 6.472 16.3707 6.472 17.224C8.86133 13.2133 12.232 9.416 16.584 5.832C20.9787 2.248 24.4773 0.455997 27.08 0.455997C28.0613 0.455997 28.872 0.754664 29.512 1.352C30.1947 1.94933 30.536 2.71733 30.536 3.656C30.536 4.59467 30.1947 5.36267 29.512 5.96C28.872 6.55733 28.2107 6.856 27.528 6.856C26.8453 6.856 26.1413 6.68533 25.416 6.344C24.7333 5.96 23.9653 5.768 23.112 5.768C22.2587 5.768 20.9573 6.408 19.208 7.688C17.4587 8.968 15.5813 10.6747 13.576 12.808C11.656 14.9413 10.0987 16.9467 8.904 18.824C21.6613 35.3787 37.0853 47.9013 55.176 56.392C57.9493 57.672 59.336 59.1227 59.336 60.744C59.336 61.5973 59.0373 62.28 58.44 62.792C57.8427 63.304 57.0107 63.56 55.944 63.56C53.2987 63.56 48.8613 61.3413 42.632 56.904C36.4453 52.4667 30.024 47.1547 23.368 40.968C20.3387 38.1947 17.2027 35.0587 13.96 31.56C10.76 28.0187 8.24267 25.0747 6.408 22.728Z" fill="#E74B75"/>
<path d="M41.265 45.384C39.6863 45.384 38.4063 45.064 37.425 44.424C36.4437 43.784 35.953 42.9947 35.953 42.056C35.953 41.0747 36.2303 40.3067 36.785 39.752C37.3823 39.1547 37.9583 38.856 38.513 38.856C39.1103 38.856 40.0703 39.112 41.393 39.624C42.7157 40.136 44.081 40.392 45.489 40.392C46.9397 40.392 48.3903 40.0293 49.841 39.304C51.2917 38.536 52.017 37.6187 52.017 36.552C52.017 35.4427 51.4623 34.5893 50.353 33.992C49.2863 33.3947 47.985 32.9253 46.449 32.584C44.913 32.2 43.377 31.7733 41.841 31.304C40.305 30.8347 38.9823 30.1307 37.873 29.192C36.8063 28.2107 36.273 27.016 36.273 25.608C36.273 23.304 37.745 21.1067 40.689 19.016C43.633 16.8827 46.8757 15.816 50.417 15.816C52.1237 15.816 53.425 16.136 54.321 16.776C55.2597 17.3733 55.729 18.1627 55.729 19.144C55.729 20.1253 55.4303 20.9147 54.833 21.512C54.2783 22.0667 53.7023 22.344 53.105 22.344C52.5503 22.344 51.6117 22.088 50.289 21.576C48.9663 21.064 47.5797 20.808 46.129 20.808C44.721 20.808 43.4837 21.1067 42.417 21.704C41.393 22.3013 40.881 23.0267 40.881 23.88C40.881 24.7333 41.6917 25.48 43.313 26.12C44.977 26.76 46.7903 27.272 48.753 27.656C50.7157 28.04 52.5077 28.808 54.129 29.96C55.793 31.0693 56.625 32.52 56.625 34.312C56.625 37.0853 55.0037 39.624 51.761 41.928C48.5183 44.232 45.0197 45.384 41.265 45.384Z" fill="black"/>
</svg>
